<mxfile host="Electron" agent="Mozilla/5.0 (Windows NT 10.0; Win64; x64) AppleWebKit/537.36 (KHTML, like Gecko) draw.io/28.1.2 Chrome/138.0.7204.243 Electron/37.4.0 Safari/537.36" version="28.1.2">
  <diagram name="Страница — 1" id="aQO6wImOygcN_fj9YdqJ">
    <mxGraphModel dx="992" dy="596" grid="1" gridSize="10" guides="1" tooltips="1" connect="1" arrows="1" fold="1" page="1" pageScale="1" pageWidth="827" pageHeight="1169" math="0" shadow="0">
      <root>
        <mxCell id="0" />
        <mxCell id="1" parent="0" />
        <mxCell id="wdBrdmCuDnFgoLkxRWWF-6" value="" style="edgeStyle=orthogonalEdgeStyle;rounded=0;orthogonalLoop=1;jettySize=auto;html=1;" parent="1" source="8k_-EUJN0VSNiPV6PIDz-1" target="wdBrdmCuDnFgoLkxRWWF-5" edge="1">
          <mxGeometry relative="1" as="geometry" />
        </mxCell>
        <mxCell id="8k_-EUJN0VSNiPV6PIDz-1" value="Начало" style="rounded=1;whiteSpace=wrap;html=1;" parent="1" vertex="1">
          <mxGeometry x="40" y="20" width="120" height="60" as="geometry" />
        </mxCell>
        <mxCell id="wdBrdmCuDnFgoLkxRWWF-12" value="" style="edgeStyle=orthogonalEdgeStyle;rounded=0;orthogonalLoop=1;jettySize=auto;html=1;" parent="1" source="wdBrdmCuDnFgoLkxRWWF-5" target="wdBrdmCuDnFgoLkxRWWF-10" edge="1">
          <mxGeometry relative="1" as="geometry" />
        </mxCell>
        <mxCell id="wdBrdmCuDnFgoLkxRWWF-5" value="Открыть хлебницу" style="rounded=0;whiteSpace=wrap;html=1;" parent="1" vertex="1">
          <mxGeometry x="40" y="110" width="120" height="60" as="geometry" />
        </mxCell>
        <mxCell id="wdBrdmCuDnFgoLkxRWWF-18" value="" style="edgeStyle=orthogonalEdgeStyle;rounded=0;orthogonalLoop=1;jettySize=auto;html=1;" parent="1" source="wdBrdmCuDnFgoLkxRWWF-8" target="wdBrdmCuDnFgoLkxRWWF-11" edge="1">
          <mxGeometry relative="1" as="geometry" />
        </mxCell>
        <mxCell id="wdBrdmCuDnFgoLkxRWWF-8" value="Достать хлеб из хлебницы" style="rounded=0;whiteSpace=wrap;html=1;" parent="1" vertex="1">
          <mxGeometry x="40" y="400" width="120" height="60" as="geometry" />
        </mxCell>
        <mxCell id="wdBrdmCuDnFgoLkxRWWF-16" value="" style="edgeStyle=orthogonalEdgeStyle;rounded=0;orthogonalLoop=1;jettySize=auto;html=1;" parent="1" source="wdBrdmCuDnFgoLkxRWWF-9" target="wdBrdmCuDnFgoLkxRWWF-8" edge="1">
          <mxGeometry relative="1" as="geometry" />
        </mxCell>
        <mxCell id="wdBrdmCuDnFgoLkxRWWF-17" value="Да" style="edgeLabel;html=1;align=center;verticalAlign=middle;resizable=0;points=[];" parent="wdBrdmCuDnFgoLkxRWWF-16" vertex="1" connectable="0">
          <mxGeometry x="-0.34" y="-2" relative="1" as="geometry">
            <mxPoint as="offset" />
          </mxGeometry>
        </mxCell>
        <mxCell id="wdBrdmCuDnFgoLkxRWWF-20" value="" style="edgeStyle=orthogonalEdgeStyle;rounded=0;orthogonalLoop=1;jettySize=auto;html=1;" parent="1" source="wdBrdmCuDnFgoLkxRWWF-9" target="wdBrdmCuDnFgoLkxRWWF-19" edge="1">
          <mxGeometry relative="1" as="geometry" />
        </mxCell>
        <mxCell id="wdBrdmCuDnFgoLkxRWWF-21" value="Нет" style="edgeLabel;html=1;align=center;verticalAlign=middle;resizable=0;points=[];" parent="wdBrdmCuDnFgoLkxRWWF-20" vertex="1" connectable="0">
          <mxGeometry x="-0.232" y="-1" relative="1" as="geometry">
            <mxPoint as="offset" />
          </mxGeometry>
        </mxCell>
        <mxCell id="wdBrdmCuDnFgoLkxRWWF-9" value="Хлеб есть?" style="rhombus;whiteSpace=wrap;html=1;" parent="1" vertex="1">
          <mxGeometry x="40" y="290" width="120" height="80" as="geometry" />
        </mxCell>
        <mxCell id="wdBrdmCuDnFgoLkxRWWF-13" value="" style="edgeStyle=orthogonalEdgeStyle;rounded=0;orthogonalLoop=1;jettySize=auto;html=1;" parent="1" source="wdBrdmCuDnFgoLkxRWWF-10" target="wdBrdmCuDnFgoLkxRWWF-9" edge="1">
          <mxGeometry relative="1" as="geometry" />
        </mxCell>
        <mxCell id="wdBrdmCuDnFgoLkxRWWF-10" value="Посмотреть, есть ли хлеб" style="rounded=0;whiteSpace=wrap;html=1;" parent="1" vertex="1">
          <mxGeometry x="40" y="200" width="120" height="60" as="geometry" />
        </mxCell>
        <mxCell id="wdBrdmCuDnFgoLkxRWWF-88" value="" style="edgeStyle=orthogonalEdgeStyle;rounded=0;orthogonalLoop=1;jettySize=auto;html=1;" parent="1" source="wdBrdmCuDnFgoLkxRWWF-11" target="wdBrdmCuDnFgoLkxRWWF-69" edge="1">
          <mxGeometry relative="1" as="geometry" />
        </mxCell>
        <mxCell id="wdBrdmCuDnFgoLkxRWWF-11" value="Закрыть хлебницу" style="rounded=0;whiteSpace=wrap;html=1;" parent="1" vertex="1">
          <mxGeometry x="40" y="480" width="120" height="60" as="geometry" />
        </mxCell>
        <mxCell id="wdBrdmCuDnFgoLkxRWWF-23" value="" style="edgeStyle=orthogonalEdgeStyle;rounded=0;orthogonalLoop=1;jettySize=auto;html=1;" parent="1" source="wdBrdmCuDnFgoLkxRWWF-19" target="wdBrdmCuDnFgoLkxRWWF-22" edge="1">
          <mxGeometry relative="1" as="geometry" />
        </mxCell>
        <mxCell id="wdBrdmCuDnFgoLkxRWWF-19" value="Надеть комбинезон" style="rounded=0;whiteSpace=wrap;html=1;" parent="1" vertex="1">
          <mxGeometry x="210" y="300" width="120" height="60" as="geometry" />
        </mxCell>
        <mxCell id="wdBrdmCuDnFgoLkxRWWF-25" value="" style="edgeStyle=orthogonalEdgeStyle;rounded=0;orthogonalLoop=1;jettySize=auto;html=1;" parent="1" source="wdBrdmCuDnFgoLkxRWWF-22" target="wdBrdmCuDnFgoLkxRWWF-24" edge="1">
          <mxGeometry relative="1" as="geometry" />
        </mxCell>
        <mxCell id="wdBrdmCuDnFgoLkxRWWF-22" value="Надеть обувь" style="rounded=0;whiteSpace=wrap;html=1;" parent="1" vertex="1">
          <mxGeometry x="210" y="200" width="120" height="60" as="geometry" />
        </mxCell>
        <mxCell id="wdBrdmCuDnFgoLkxRWWF-27" value="" style="edgeStyle=orthogonalEdgeStyle;rounded=0;orthogonalLoop=1;jettySize=auto;html=1;" parent="1" source="wdBrdmCuDnFgoLkxRWWF-24" target="wdBrdmCuDnFgoLkxRWWF-26" edge="1">
          <mxGeometry relative="1" as="geometry" />
        </mxCell>
        <mxCell id="wdBrdmCuDnFgoLkxRWWF-24" value="Выйти из квартиры" style="rounded=0;whiteSpace=wrap;html=1;" parent="1" vertex="1">
          <mxGeometry x="210" y="110" width="120" height="60" as="geometry" />
        </mxCell>
        <mxCell id="wdBrdmCuDnFgoLkxRWWF-47" value="" style="edgeStyle=orthogonalEdgeStyle;rounded=0;orthogonalLoop=1;jettySize=auto;html=1;" parent="1" source="wdBrdmCuDnFgoLkxRWWF-26" target="wdBrdmCuDnFgoLkxRWWF-40" edge="1">
          <mxGeometry relative="1" as="geometry" />
        </mxCell>
        <mxCell id="wdBrdmCuDnFgoLkxRWWF-26" value="Закрыть замок квартиры" style="rounded=0;whiteSpace=wrap;html=1;" parent="1" vertex="1">
          <mxGeometry x="210" y="20" width="120" height="60" as="geometry" />
        </mxCell>
        <mxCell id="wdBrdmCuDnFgoLkxRWWF-31" value="" style="edgeStyle=orthogonalEdgeStyle;rounded=0;orthogonalLoop=1;jettySize=auto;html=1;" parent="1" source="wdBrdmCuDnFgoLkxRWWF-28" target="wdBrdmCuDnFgoLkxRWWF-30" edge="1">
          <mxGeometry relative="1" as="geometry" />
        </mxCell>
        <mxCell id="wdBrdmCuDnFgoLkxRWWF-28" value="Открыть дверь подъезда" style="rounded=0;whiteSpace=wrap;html=1;" parent="1" vertex="1">
          <mxGeometry x="360" y="200" width="120" height="60" as="geometry" />
        </mxCell>
        <mxCell id="wdBrdmCuDnFgoLkxRWWF-33" value="" style="edgeStyle=orthogonalEdgeStyle;rounded=0;orthogonalLoop=1;jettySize=auto;html=1;" parent="1" source="wdBrdmCuDnFgoLkxRWWF-30" target="wdBrdmCuDnFgoLkxRWWF-32" edge="1">
          <mxGeometry relative="1" as="geometry" />
        </mxCell>
        <mxCell id="wdBrdmCuDnFgoLkxRWWF-30" value="Выйти из подъезда" style="rounded=0;whiteSpace=wrap;html=1;" parent="1" vertex="1">
          <mxGeometry x="360" y="300" width="120" height="60" as="geometry" />
        </mxCell>
        <mxCell id="wdBrdmCuDnFgoLkxRWWF-35" value="" style="edgeStyle=orthogonalEdgeStyle;rounded=0;orthogonalLoop=1;jettySize=auto;html=1;" parent="1" source="wdBrdmCuDnFgoLkxRWWF-32" target="wdBrdmCuDnFgoLkxRWWF-34" edge="1">
          <mxGeometry relative="1" as="geometry" />
        </mxCell>
        <mxCell id="wdBrdmCuDnFgoLkxRWWF-32" value="Повернуться налево" style="rounded=0;whiteSpace=wrap;html=1;" parent="1" vertex="1">
          <mxGeometry x="510" y="300" width="120" height="60" as="geometry" />
        </mxCell>
        <mxCell id="wdBrdmCuDnFgoLkxRWWF-37" value="" style="edgeStyle=orthogonalEdgeStyle;rounded=0;orthogonalLoop=1;jettySize=auto;html=1;" parent="1" source="wdBrdmCuDnFgoLkxRWWF-34" target="wdBrdmCuDnFgoLkxRWWF-36" edge="1">
          <mxGeometry relative="1" as="geometry" />
        </mxCell>
        <mxCell id="wdBrdmCuDnFgoLkxRWWF-34" value="Пройти до конца дома" style="rounded=0;whiteSpace=wrap;html=1;" parent="1" vertex="1">
          <mxGeometry x="510" y="200" width="120" height="60" as="geometry" />
        </mxCell>
        <mxCell id="wdBrdmCuDnFgoLkxRWWF-41" value="" style="edgeStyle=orthogonalEdgeStyle;rounded=0;orthogonalLoop=1;jettySize=auto;html=1;" parent="1" source="wdBrdmCuDnFgoLkxRWWF-36" target="wdBrdmCuDnFgoLkxRWWF-38" edge="1">
          <mxGeometry relative="1" as="geometry" />
        </mxCell>
        <mxCell id="wdBrdmCuDnFgoLkxRWWF-36" value="Обойти дом вдоль торца" style="rounded=0;whiteSpace=wrap;html=1;" parent="1" vertex="1">
          <mxGeometry x="510" y="110" width="120" height="60" as="geometry" />
        </mxCell>
        <mxCell id="wdBrdmCuDnFgoLkxRWWF-43" value="" style="edgeStyle=orthogonalEdgeStyle;rounded=0;orthogonalLoop=1;jettySize=auto;html=1;" parent="1" source="wdBrdmCuDnFgoLkxRWWF-38" target="wdBrdmCuDnFgoLkxRWWF-42" edge="1">
          <mxGeometry relative="1" as="geometry" />
        </mxCell>
        <mxCell id="wdBrdmCuDnFgoLkxRWWF-38" value="Подняться по ступеням крыльца магазина" style="rounded=0;whiteSpace=wrap;html=1;" parent="1" vertex="1">
          <mxGeometry x="510" y="20" width="120" height="60" as="geometry" />
        </mxCell>
        <mxCell id="wdBrdmCuDnFgoLkxRWWF-49" value="" style="edgeStyle=orthogonalEdgeStyle;rounded=0;orthogonalLoop=1;jettySize=auto;html=1;" parent="1" source="wdBrdmCuDnFgoLkxRWWF-39" target="wdBrdmCuDnFgoLkxRWWF-28" edge="1">
          <mxGeometry relative="1" as="geometry" />
        </mxCell>
        <mxCell id="wdBrdmCuDnFgoLkxRWWF-39" value="Спуститься по лестнице на первый этаж" style="rounded=0;whiteSpace=wrap;html=1;" parent="1" vertex="1">
          <mxGeometry x="360" y="110" width="120" height="60" as="geometry" />
        </mxCell>
        <mxCell id="wdBrdmCuDnFgoLkxRWWF-48" value="" style="edgeStyle=orthogonalEdgeStyle;rounded=0;orthogonalLoop=1;jettySize=auto;html=1;" parent="1" source="wdBrdmCuDnFgoLkxRWWF-40" target="wdBrdmCuDnFgoLkxRWWF-39" edge="1">
          <mxGeometry relative="1" as="geometry" />
        </mxCell>
        <mxCell id="wdBrdmCuDnFgoLkxRWWF-40" value="Убрать ключи в карман" style="rounded=0;whiteSpace=wrap;html=1;" parent="1" vertex="1">
          <mxGeometry x="360" y="20" width="120" height="60" as="geometry" />
        </mxCell>
        <mxCell id="wdBrdmCuDnFgoLkxRWWF-45" value="" style="edgeStyle=orthogonalEdgeStyle;rounded=0;orthogonalLoop=1;jettySize=auto;html=1;" parent="1" source="wdBrdmCuDnFgoLkxRWWF-42" target="wdBrdmCuDnFgoLkxRWWF-44" edge="1">
          <mxGeometry relative="1" as="geometry" />
        </mxCell>
        <mxCell id="wdBrdmCuDnFgoLkxRWWF-42" value="Открыть дверь магазина" style="rounded=0;whiteSpace=wrap;html=1;" parent="1" vertex="1">
          <mxGeometry x="660" y="20" width="120" height="60" as="geometry" />
        </mxCell>
        <mxCell id="wdBrdmCuDnFgoLkxRWWF-50" value="" style="edgeStyle=orthogonalEdgeStyle;rounded=0;orthogonalLoop=1;jettySize=auto;html=1;" parent="1" source="wdBrdmCuDnFgoLkxRWWF-44" target="wdBrdmCuDnFgoLkxRWWF-46" edge="1">
          <mxGeometry relative="1" as="geometry" />
        </mxCell>
        <mxCell id="wdBrdmCuDnFgoLkxRWWF-44" value="Зайти в магазин" style="rounded=0;whiteSpace=wrap;html=1;" parent="1" vertex="1">
          <mxGeometry x="660" y="110" width="120" height="60" as="geometry" />
        </mxCell>
        <mxCell id="wdBrdmCuDnFgoLkxRWWF-52" value="" style="edgeStyle=orthogonalEdgeStyle;rounded=0;orthogonalLoop=1;jettySize=auto;html=1;" parent="1" source="wdBrdmCuDnFgoLkxRWWF-46" target="wdBrdmCuDnFgoLkxRWWF-51" edge="1">
          <mxGeometry relative="1" as="geometry" />
        </mxCell>
        <mxCell id="wdBrdmCuDnFgoLkxRWWF-46" value="Найти и взять товар" style="rounded=0;whiteSpace=wrap;html=1;" parent="1" vertex="1">
          <mxGeometry x="660" y="200" width="120" height="60" as="geometry" />
        </mxCell>
        <mxCell id="wdBrdmCuDnFgoLkxRWWF-54" value="" style="edgeStyle=orthogonalEdgeStyle;rounded=0;orthogonalLoop=1;jettySize=auto;html=1;" parent="1" source="wdBrdmCuDnFgoLkxRWWF-51" target="wdBrdmCuDnFgoLkxRWWF-53" edge="1">
          <mxGeometry relative="1" as="geometry" />
        </mxCell>
        <mxCell id="wdBrdmCuDnFgoLkxRWWF-51" value="Оплатить товар на кассе" style="rounded=0;whiteSpace=wrap;html=1;" parent="1" vertex="1">
          <mxGeometry x="660" y="300" width="120" height="60" as="geometry" />
        </mxCell>
        <mxCell id="wdBrdmCuDnFgoLkxRWWF-56" value="" style="edgeStyle=orthogonalEdgeStyle;rounded=0;orthogonalLoop=1;jettySize=auto;html=1;" parent="1" source="wdBrdmCuDnFgoLkxRWWF-53" edge="1">
          <mxGeometry relative="1" as="geometry">
            <mxPoint x="550" y="430" as="targetPoint" />
          </mxGeometry>
        </mxCell>
        <mxCell id="wdBrdmCuDnFgoLkxRWWF-57" value="Наличные" style="edgeLabel;html=1;align=center;verticalAlign=middle;resizable=0;points=[];" parent="wdBrdmCuDnFgoLkxRWWF-56" vertex="1" connectable="0">
          <mxGeometry x="-0.1533" relative="1" as="geometry">
            <mxPoint as="offset" />
          </mxGeometry>
        </mxCell>
        <mxCell id="wdBrdmCuDnFgoLkxRWWF-59" value="" style="edgeStyle=orthogonalEdgeStyle;rounded=0;orthogonalLoop=1;jettySize=auto;html=1;" parent="1" source="wdBrdmCuDnFgoLkxRWWF-53" target="wdBrdmCuDnFgoLkxRWWF-58" edge="1">
          <mxGeometry relative="1" as="geometry" />
        </mxCell>
        <mxCell id="wdBrdmCuDnFgoLkxRWWF-60" value="Карта" style="edgeLabel;html=1;align=center;verticalAlign=middle;resizable=0;points=[];" parent="wdBrdmCuDnFgoLkxRWWF-59" vertex="1" connectable="0">
          <mxGeometry x="-0.13" y="-2" relative="1" as="geometry">
            <mxPoint as="offset" />
          </mxGeometry>
        </mxCell>
        <mxCell id="wdBrdmCuDnFgoLkxRWWF-53" value="Наличные или карта?" style="rhombus;whiteSpace=wrap;html=1;" parent="1" vertex="1">
          <mxGeometry x="660" y="390" width="120" height="80" as="geometry" />
        </mxCell>
        <mxCell id="wdBrdmCuDnFgoLkxRWWF-62" value="" style="edgeStyle=orthogonalEdgeStyle;rounded=0;orthogonalLoop=1;jettySize=auto;html=1;" parent="1" source="wdBrdmCuDnFgoLkxRWWF-58" target="wdBrdmCuDnFgoLkxRWWF-61" edge="1">
          <mxGeometry relative="1" as="geometry" />
        </mxCell>
        <mxCell id="wdBrdmCuDnFgoLkxRWWF-58" value="Достать карту" style="rounded=0;whiteSpace=wrap;html=1;" parent="1" vertex="1">
          <mxGeometry x="660" y="510" width="120" height="60" as="geometry" />
        </mxCell>
        <mxCell id="wdBrdmCuDnFgoLkxRWWF-67" value="" style="edgeStyle=orthogonalEdgeStyle;rounded=0;orthogonalLoop=1;jettySize=auto;html=1;" parent="1" source="wdBrdmCuDnFgoLkxRWWF-61" target="wdBrdmCuDnFgoLkxRWWF-63" edge="1">
          <mxGeometry relative="1" as="geometry" />
        </mxCell>
        <mxCell id="wdBrdmCuDnFgoLkxRWWF-61" value="Приложить к терминалу" style="rounded=0;whiteSpace=wrap;html=1;" parent="1" vertex="1">
          <mxGeometry x="660" y="584" width="120" height="60" as="geometry" />
        </mxCell>
        <mxCell id="8Jns6F7Sz3eSBuDucrZk-4" value="" style="edgeStyle=orthogonalEdgeStyle;rounded=0;orthogonalLoop=1;jettySize=auto;html=1;" edge="1" parent="1" source="wdBrdmCuDnFgoLkxRWWF-63" target="8Jns6F7Sz3eSBuDucrZk-2">
          <mxGeometry relative="1" as="geometry" />
        </mxCell>
        <mxCell id="wdBrdmCuDnFgoLkxRWWF-63" value="Забрать товар" style="rounded=0;whiteSpace=wrap;html=1;" parent="1" vertex="1">
          <mxGeometry x="660" y="660" width="120" height="60" as="geometry" />
        </mxCell>
        <mxCell id="wdBrdmCuDnFgoLkxRWWF-66" value="" style="edgeStyle=orthogonalEdgeStyle;rounded=0;orthogonalLoop=1;jettySize=auto;html=1;entryX=0;entryY=0.5;entryDx=0;entryDy=0;exitX=0.407;exitY=1.006;exitDx=0;exitDy=0;exitPerimeter=0;" parent="1" source="wdBrdmCuDnFgoLkxRWWF-64" target="wdBrdmCuDnFgoLkxRWWF-58" edge="1">
          <mxGeometry relative="1" as="geometry">
            <mxPoint x="465" y="525" as="targetPoint" />
          </mxGeometry>
        </mxCell>
        <mxCell id="wdBrdmCuDnFgoLkxRWWF-64" value="Уведомить кассира об отсутствии наличных" style="shape=parallelogram;perimeter=parallelogramPerimeter;whiteSpace=wrap;html=1;fixedSize=1;" parent="1" vertex="1">
          <mxGeometry x="380" y="400" width="170" height="70" as="geometry" />
        </mxCell>
        <mxCell id="wdBrdmCuDnFgoLkxRWWF-68" value="Достать доску и нож" style="rounded=0;whiteSpace=wrap;html=1;" parent="1" vertex="1">
          <mxGeometry x="40" y="555" width="120" height="60" as="geometry" />
        </mxCell>
        <mxCell id="wdBrdmCuDnFgoLkxRWWF-89" value="" style="edgeStyle=orthogonalEdgeStyle;rounded=0;orthogonalLoop=1;jettySize=auto;html=1;" parent="1" source="wdBrdmCuDnFgoLkxRWWF-69" target="wdBrdmCuDnFgoLkxRWWF-72" edge="1">
          <mxGeometry relative="1" as="geometry" />
        </mxCell>
        <mxCell id="wdBrdmCuDnFgoLkxRWWF-69" value="Положить хлеб на доску" style="rounded=0;whiteSpace=wrap;html=1;" parent="1" vertex="1">
          <mxGeometry x="40" y="640" width="120" height="60" as="geometry" />
        </mxCell>
        <mxCell id="wdBrdmCuDnFgoLkxRWWF-75" value="" style="edgeStyle=orthogonalEdgeStyle;rounded=0;orthogonalLoop=1;jettySize=auto;html=1;" parent="1" source="wdBrdmCuDnFgoLkxRWWF-70" target="wdBrdmCuDnFgoLkxRWWF-72" edge="1">
          <mxGeometry relative="1" as="geometry" />
        </mxCell>
        <mxCell id="wdBrdmCuDnFgoLkxRWWF-70" value="Ножом отрезать кусок хлеба на доске" style="rounded=0;whiteSpace=wrap;html=1;" parent="1" vertex="1">
          <mxGeometry x="40" y="720" width="120" height="60" as="geometry" />
        </mxCell>
        <mxCell id="wdBrdmCuDnFgoLkxRWWF-77" value="" style="edgeStyle=orthogonalEdgeStyle;rounded=0;orthogonalLoop=1;jettySize=auto;html=1;" parent="1" source="wdBrdmCuDnFgoLkxRWWF-72" target="wdBrdmCuDnFgoLkxRWWF-76" edge="1">
          <mxGeometry relative="1" as="geometry" />
        </mxCell>
        <mxCell id="wdBrdmCuDnFgoLkxRWWF-80" value="Да" style="edgeLabel;html=1;align=center;verticalAlign=middle;resizable=0;points=[];" parent="wdBrdmCuDnFgoLkxRWWF-77" vertex="1" connectable="0">
          <mxGeometry x="-0.78" y="4" relative="1" as="geometry">
            <mxPoint x="-4" y="10" as="offset" />
          </mxGeometry>
        </mxCell>
        <mxCell id="wdBrdmCuDnFgoLkxRWWF-82" value="" style="edgeStyle=orthogonalEdgeStyle;rounded=0;orthogonalLoop=1;jettySize=auto;html=1;" parent="1" source="wdBrdmCuDnFgoLkxRWWF-72" target="wdBrdmCuDnFgoLkxRWWF-81" edge="1">
          <mxGeometry relative="1" as="geometry" />
        </mxCell>
        <mxCell id="wdBrdmCuDnFgoLkxRWWF-85" value="Нет" style="edgeLabel;html=1;align=center;verticalAlign=middle;resizable=0;points=[];" parent="wdBrdmCuDnFgoLkxRWWF-82" vertex="1" connectable="0">
          <mxGeometry x="-0.28" y="2" relative="1" as="geometry">
            <mxPoint as="offset" />
          </mxGeometry>
        </mxCell>
        <mxCell id="wdBrdmCuDnFgoLkxRWWF-72" value="Бутерброд готов?" style="rhombus;whiteSpace=wrap;html=1;" parent="1" vertex="1">
          <mxGeometry x="40" y="810" width="120" height="80" as="geometry" />
        </mxCell>
        <mxCell id="wdBrdmCuDnFgoLkxRWWF-79" value="" style="edgeStyle=orthogonalEdgeStyle;rounded=0;orthogonalLoop=1;jettySize=auto;html=1;" parent="1" source="wdBrdmCuDnFgoLkxRWWF-76" target="wdBrdmCuDnFgoLkxRWWF-78" edge="1">
          <mxGeometry relative="1" as="geometry" />
        </mxCell>
        <mxCell id="wdBrdmCuDnFgoLkxRWWF-76" value="Съесть бутерброд" style="rounded=0;whiteSpace=wrap;html=1;" parent="1" vertex="1">
          <mxGeometry x="40" y="930" width="120" height="60" as="geometry" />
        </mxCell>
        <mxCell id="wdBrdmCuDnFgoLkxRWWF-78" value="Конец" style="rounded=1;whiteSpace=wrap;html=1;" parent="1" vertex="1">
          <mxGeometry x="40" y="1030" width="120" height="60" as="geometry" />
        </mxCell>
        <mxCell id="wdBrdmCuDnFgoLkxRWWF-91" value="" style="edgeStyle=orthogonalEdgeStyle;rounded=0;orthogonalLoop=1;jettySize=auto;html=1;" parent="1" source="wdBrdmCuDnFgoLkxRWWF-81" target="wdBrdmCuDnFgoLkxRWWF-90" edge="1">
          <mxGeometry relative="1" as="geometry" />
        </mxCell>
        <mxCell id="wdBrdmCuDnFgoLkxRWWF-81" value="Открыть холодильник" style="rounded=0;whiteSpace=wrap;html=1;" parent="1" vertex="1">
          <mxGeometry x="210" y="820" width="120" height="60" as="geometry" />
        </mxCell>
        <mxCell id="wdBrdmCuDnFgoLkxRWWF-93" value="" style="edgeStyle=orthogonalEdgeStyle;rounded=0;orthogonalLoop=1;jettySize=auto;html=1;" parent="1" source="wdBrdmCuDnFgoLkxRWWF-90" target="wdBrdmCuDnFgoLkxRWWF-92" edge="1">
          <mxGeometry relative="1" as="geometry" />
        </mxCell>
        <mxCell id="wdBrdmCuDnFgoLkxRWWF-90" value="Проверить, есть ли масло" style="rounded=0;whiteSpace=wrap;html=1;" parent="1" vertex="1">
          <mxGeometry x="210" y="720" width="120" height="60" as="geometry" />
        </mxCell>
        <mxCell id="wdBrdmCuDnFgoLkxRWWF-99" value="" style="edgeStyle=orthogonalEdgeStyle;rounded=0;orthogonalLoop=1;jettySize=auto;html=1;" parent="1" source="wdBrdmCuDnFgoLkxRWWF-92" target="wdBrdmCuDnFgoLkxRWWF-97" edge="1">
          <mxGeometry relative="1" as="geometry" />
        </mxCell>
        <mxCell id="wdBrdmCuDnFgoLkxRWWF-101" value="Нет" style="edgeLabel;html=1;align=center;verticalAlign=middle;resizable=0;points=[];" parent="wdBrdmCuDnFgoLkxRWWF-99" vertex="1" connectable="0">
          <mxGeometry x="0.4044" y="-2" relative="1" as="geometry">
            <mxPoint x="-2" y="18" as="offset" />
          </mxGeometry>
        </mxCell>
        <mxCell id="wdBrdmCuDnFgoLkxRWWF-105" value="" style="edgeStyle=orthogonalEdgeStyle;rounded=0;orthogonalLoop=1;jettySize=auto;html=1;" parent="1" source="wdBrdmCuDnFgoLkxRWWF-92" target="wdBrdmCuDnFgoLkxRWWF-103" edge="1">
          <mxGeometry relative="1" as="geometry" />
        </mxCell>
        <mxCell id="wdBrdmCuDnFgoLkxRWWF-106" value="Да" style="edgeLabel;html=1;align=center;verticalAlign=middle;resizable=0;points=[];" parent="wdBrdmCuDnFgoLkxRWWF-105" vertex="1" connectable="0">
          <mxGeometry x="0.224" y="5" relative="1" as="geometry">
            <mxPoint x="-4" y="5" as="offset" />
          </mxGeometry>
        </mxCell>
        <mxCell id="wdBrdmCuDnFgoLkxRWWF-92" value="Масло есть?" style="rhombus;whiteSpace=wrap;html=1;" parent="1" vertex="1">
          <mxGeometry x="210" y="615" width="120" height="80" as="geometry" />
        </mxCell>
        <mxCell id="wdBrdmCuDnFgoLkxRWWF-100" style="edgeStyle=orthogonalEdgeStyle;rounded=0;orthogonalLoop=1;jettySize=auto;html=1;exitX=0.5;exitY=0;exitDx=0;exitDy=0;entryX=0.5;entryY=1;entryDx=0;entryDy=0;" parent="1" source="wdBrdmCuDnFgoLkxRWWF-97" target="wdBrdmCuDnFgoLkxRWWF-19" edge="1">
          <mxGeometry relative="1" as="geometry" />
        </mxCell>
        <mxCell id="wdBrdmCuDnFgoLkxRWWF-97" value="Закрыть холодильник" style="rounded=0;whiteSpace=wrap;html=1;" parent="1" vertex="1">
          <mxGeometry x="210" y="480" width="120" height="60" as="geometry" />
        </mxCell>
        <mxCell id="wdBrdmCuDnFgoLkxRWWF-130" style="edgeStyle=orthogonalEdgeStyle;rounded=0;orthogonalLoop=1;jettySize=auto;html=1;exitX=0.5;exitY=0;exitDx=0;exitDy=0;entryX=0;entryY=0.5;entryDx=0;entryDy=0;" parent="1" source="wdBrdmCuDnFgoLkxRWWF-103" target="wdBrdmCuDnFgoLkxRWWF-129" edge="1">
          <mxGeometry relative="1" as="geometry">
            <Array as="points">
              <mxPoint x="420" y="625" />
              <mxPoint x="420" y="585" />
            </Array>
          </mxGeometry>
        </mxCell>
        <mxCell id="wdBrdmCuDnFgoLkxRWWF-103" value="Достать масло из холодильника" style="rounded=0;whiteSpace=wrap;html=1;" parent="1" vertex="1">
          <mxGeometry x="370" y="625" width="120" height="60" as="geometry" />
        </mxCell>
        <mxCell id="wdBrdmCuDnFgoLkxRWWF-110" value="" style="edgeStyle=orthogonalEdgeStyle;rounded=0;orthogonalLoop=1;jettySize=auto;html=1;" parent="1" source="wdBrdmCuDnFgoLkxRWWF-107" target="wdBrdmCuDnFgoLkxRWWF-109" edge="1">
          <mxGeometry relative="1" as="geometry" />
        </mxCell>
        <mxCell id="wdBrdmCuDnFgoLkxRWWF-107" value="Открыть масло" style="rounded=0;whiteSpace=wrap;html=1;" parent="1" vertex="1">
          <mxGeometry x="510" y="625" width="120" height="60" as="geometry" />
        </mxCell>
        <mxCell id="wdBrdmCuDnFgoLkxRWWF-112" value="" style="edgeStyle=orthogonalEdgeStyle;rounded=0;orthogonalLoop=1;jettySize=auto;html=1;" parent="1" source="wdBrdmCuDnFgoLkxRWWF-109" target="wdBrdmCuDnFgoLkxRWWF-111" edge="1">
          <mxGeometry relative="1" as="geometry" />
        </mxCell>
        <mxCell id="wdBrdmCuDnFgoLkxRWWF-109" value="Взять нож" style="rounded=0;whiteSpace=wrap;html=1;" parent="1" vertex="1">
          <mxGeometry x="510" y="720" width="120" height="60" as="geometry" />
        </mxCell>
        <mxCell id="wdBrdmCuDnFgoLkxRWWF-115" value="" style="edgeStyle=orthogonalEdgeStyle;rounded=0;orthogonalLoop=1;jettySize=auto;html=1;" parent="1" source="wdBrdmCuDnFgoLkxRWWF-111" target="wdBrdmCuDnFgoLkxRWWF-113" edge="1">
          <mxGeometry relative="1" as="geometry" />
        </mxCell>
        <mxCell id="wdBrdmCuDnFgoLkxRWWF-111" value="Отделить кусок масла ножом" style="rounded=0;whiteSpace=wrap;html=1;" parent="1" vertex="1">
          <mxGeometry x="370" y="720" width="120" height="60" as="geometry" />
        </mxCell>
        <mxCell id="wdBrdmCuDnFgoLkxRWWF-116" value="" style="edgeStyle=orthogonalEdgeStyle;rounded=0;orthogonalLoop=1;jettySize=auto;html=1;" parent="1" source="wdBrdmCuDnFgoLkxRWWF-113" target="wdBrdmCuDnFgoLkxRWWF-114" edge="1">
          <mxGeometry relative="1" as="geometry" />
        </mxCell>
        <mxCell id="wdBrdmCuDnFgoLkxRWWF-113" value="Поместить кусок масла на кусок хлеба" style="rounded=0;whiteSpace=wrap;html=1;" parent="1" vertex="1">
          <mxGeometry x="370" y="820" width="120" height="60" as="geometry" />
        </mxCell>
        <mxCell id="wdBrdmCuDnFgoLkxRWWF-128" value="" style="edgeStyle=orthogonalEdgeStyle;rounded=0;orthogonalLoop=1;jettySize=auto;html=1;" parent="1" source="wdBrdmCuDnFgoLkxRWWF-114" target="wdBrdmCuDnFgoLkxRWWF-117" edge="1">
          <mxGeometry relative="1" as="geometry" />
        </mxCell>
        <mxCell id="wdBrdmCuDnFgoLkxRWWF-114" value="Закрыть масло" style="rounded=0;whiteSpace=wrap;html=1;" parent="1" vertex="1">
          <mxGeometry x="510" y="820" width="120" height="60" as="geometry" />
        </mxCell>
        <mxCell id="wdBrdmCuDnFgoLkxRWWF-126" value="" style="edgeStyle=orthogonalEdgeStyle;rounded=0;orthogonalLoop=1;jettySize=auto;html=1;" parent="1" edge="1">
          <mxGeometry relative="1" as="geometry">
            <mxPoint x="779" y="850" as="sourcePoint" />
            <mxPoint x="779" y="990" as="targetPoint" />
          </mxGeometry>
        </mxCell>
        <mxCell id="wdBrdmCuDnFgoLkxRWWF-127" value="Нет" style="edgeLabel;html=1;align=center;verticalAlign=middle;resizable=0;points=[];" parent="wdBrdmCuDnFgoLkxRWWF-126" vertex="1" connectable="0">
          <mxGeometry x="0.376" relative="1" as="geometry">
            <mxPoint as="offset" />
          </mxGeometry>
        </mxCell>
        <mxCell id="wdBrdmCuDnFgoLkxRWWF-117" value="Бутерброд готов?" style="rhombus;whiteSpace=wrap;html=1;" parent="1" vertex="1">
          <mxGeometry x="660" y="810" width="120" height="80" as="geometry" />
        </mxCell>
        <mxCell id="wdBrdmCuDnFgoLkxRWWF-135" value="" style="edgeStyle=orthogonalEdgeStyle;rounded=0;orthogonalLoop=1;jettySize=auto;html=1;" parent="1" source="wdBrdmCuDnFgoLkxRWWF-125" target="wdBrdmCuDnFgoLkxRWWF-133" edge="1">
          <mxGeometry relative="1" as="geometry" />
        </mxCell>
        <mxCell id="wdBrdmCuDnFgoLkxRWWF-125" value="Открыть холодильник" style="rounded=0;whiteSpace=wrap;html=1;" parent="1" vertex="1">
          <mxGeometry x="700" y="990" width="120" height="60" as="geometry" />
        </mxCell>
        <mxCell id="wdBrdmCuDnFgoLkxRWWF-129" value="Закрыть холодильник" style="rounded=0;whiteSpace=wrap;html=1;" parent="1" vertex="1">
          <mxGeometry x="440" y="555" width="120" height="60" as="geometry" />
        </mxCell>
        <mxCell id="wdBrdmCuDnFgoLkxRWWF-132" style="edgeStyle=orthogonalEdgeStyle;rounded=0;orthogonalLoop=1;jettySize=auto;html=1;exitX=1;exitY=0.5;exitDx=0;exitDy=0;entryX=0.653;entryY=0.023;entryDx=0;entryDy=0;entryPerimeter=0;" parent="1" source="wdBrdmCuDnFgoLkxRWWF-129" target="wdBrdmCuDnFgoLkxRWWF-107" edge="1">
          <mxGeometry relative="1" as="geometry" />
        </mxCell>
        <mxCell id="wdBrdmCuDnFgoLkxRWWF-136" value="" style="edgeStyle=orthogonalEdgeStyle;rounded=0;orthogonalLoop=1;jettySize=auto;html=1;" parent="1" source="wdBrdmCuDnFgoLkxRWWF-133" target="wdBrdmCuDnFgoLkxRWWF-134" edge="1">
          <mxGeometry relative="1" as="geometry" />
        </mxCell>
        <mxCell id="wdBrdmCuDnFgoLkxRWWF-133" value="Взять сыр&amp;nbsp;" style="rounded=0;whiteSpace=wrap;html=1;" parent="1" vertex="1">
          <mxGeometry x="700" y="1080" width="120" height="60" as="geometry" />
        </mxCell>
        <mxCell id="wdBrdmCuDnFgoLkxRWWF-138" value="" style="edgeStyle=orthogonalEdgeStyle;rounded=0;orthogonalLoop=1;jettySize=auto;html=1;" parent="1" source="wdBrdmCuDnFgoLkxRWWF-134" target="wdBrdmCuDnFgoLkxRWWF-137" edge="1">
          <mxGeometry relative="1" as="geometry" />
        </mxCell>
        <mxCell id="wdBrdmCuDnFgoLkxRWWF-134" value="Закрыть холодильник" style="rounded=0;whiteSpace=wrap;html=1;" parent="1" vertex="1">
          <mxGeometry x="550" y="1080" width="120" height="60" as="geometry" />
        </mxCell>
        <mxCell id="wdBrdmCuDnFgoLkxRWWF-142" value="" style="edgeStyle=orthogonalEdgeStyle;rounded=0;orthogonalLoop=1;jettySize=auto;html=1;" parent="1" source="wdBrdmCuDnFgoLkxRWWF-137" target="wdBrdmCuDnFgoLkxRWWF-139" edge="1">
          <mxGeometry relative="1" as="geometry" />
        </mxCell>
        <mxCell id="wdBrdmCuDnFgoLkxRWWF-137" value="Открыть упаковку сыра" style="rounded=0;whiteSpace=wrap;html=1;" parent="1" vertex="1">
          <mxGeometry x="550" y="990" width="120" height="60" as="geometry" />
        </mxCell>
        <mxCell id="wdBrdmCuDnFgoLkxRWWF-143" value="" style="edgeStyle=orthogonalEdgeStyle;rounded=0;orthogonalLoop=1;jettySize=auto;html=1;" parent="1" source="wdBrdmCuDnFgoLkxRWWF-139" target="wdBrdmCuDnFgoLkxRWWF-140" edge="1">
          <mxGeometry relative="1" as="geometry" />
        </mxCell>
        <mxCell id="wdBrdmCuDnFgoLkxRWWF-139" value="Взять нож и доску" style="rounded=0;whiteSpace=wrap;html=1;" parent="1" vertex="1">
          <mxGeometry x="405" y="990" width="120" height="60" as="geometry" />
        </mxCell>
        <mxCell id="wdBrdmCuDnFgoLkxRWWF-144" value="" style="edgeStyle=orthogonalEdgeStyle;rounded=0;orthogonalLoop=1;jettySize=auto;html=1;" parent="1" source="wdBrdmCuDnFgoLkxRWWF-140" target="wdBrdmCuDnFgoLkxRWWF-141" edge="1">
          <mxGeometry relative="1" as="geometry" />
        </mxCell>
        <mxCell id="wdBrdmCuDnFgoLkxRWWF-140" value="Отрезать два куска сыра ножом на доску" style="rounded=0;whiteSpace=wrap;html=1;" parent="1" vertex="1">
          <mxGeometry x="405" y="1080" width="120" height="60" as="geometry" />
        </mxCell>
        <mxCell id="8Jns6F7Sz3eSBuDucrZk-40" value="" style="edgeStyle=orthogonalEdgeStyle;rounded=0;orthogonalLoop=1;jettySize=auto;html=1;" edge="1" parent="1" source="wdBrdmCuDnFgoLkxRWWF-141" target="8Jns6F7Sz3eSBuDucrZk-39">
          <mxGeometry relative="1" as="geometry" />
        </mxCell>
        <mxCell id="wdBrdmCuDnFgoLkxRWWF-141" value="Поместить два куска сыра на кусок масла на куске хлеба" style="rounded=0;whiteSpace=wrap;html=1;" parent="1" vertex="1">
          <mxGeometry x="250" y="1080" width="120" height="60" as="geometry" />
        </mxCell>
        <mxCell id="8Jns6F7Sz3eSBuDucrZk-10" style="edgeStyle=orthogonalEdgeStyle;rounded=0;orthogonalLoop=1;jettySize=auto;html=1;exitX=0;exitY=0.5;exitDx=0;exitDy=0;" edge="1" parent="1" source="8Jns6F7Sz3eSBuDucrZk-2" target="wdBrdmCuDnFgoLkxRWWF-107">
          <mxGeometry relative="1" as="geometry">
            <Array as="points">
              <mxPoint x="640" y="765" />
              <mxPoint x="640" y="655" />
            </Array>
          </mxGeometry>
        </mxCell>
        <mxCell id="8Jns6F7Sz3eSBuDucrZk-2" value="Вернуться домой" style="rounded=0;whiteSpace=wrap;html=1;" vertex="1" parent="1">
          <mxGeometry x="660" y="735" width="120" height="60" as="geometry" />
        </mxCell>
        <mxCell id="8Jns6F7Sz3eSBuDucrZk-24" style="edgeStyle=orthogonalEdgeStyle;rounded=0;orthogonalLoop=1;jettySize=auto;html=1;exitX=0;exitY=0.5;exitDx=0;exitDy=0;entryX=1;entryY=0.5;entryDx=0;entryDy=0;" edge="1" parent="1" source="8Jns6F7Sz3eSBuDucrZk-11" target="8Jns6F7Sz3eSBuDucrZk-18">
          <mxGeometry relative="1" as="geometry">
            <Array as="points">
              <mxPoint x="640" y="935" />
              <mxPoint x="640" y="915" />
            </Array>
          </mxGeometry>
        </mxCell>
        <mxCell id="8Jns6F7Sz3eSBuDucrZk-11" value="Открыть хлебницу" style="rounded=0;whiteSpace=wrap;html=1;" vertex="1" parent="1">
          <mxGeometry x="650" y="920" width="120" height="30" as="geometry" />
        </mxCell>
        <mxCell id="8Jns6F7Sz3eSBuDucrZk-17" style="edgeStyle=orthogonalEdgeStyle;rounded=0;orthogonalLoop=1;jettySize=auto;html=1;exitX=0;exitY=0.5;exitDx=0;exitDy=0;entryX=1;entryY=0.25;entryDx=0;entryDy=0;" edge="1" parent="1" source="8Jns6F7Sz3eSBuDucrZk-16" target="wdBrdmCuDnFgoLkxRWWF-76">
          <mxGeometry relative="1" as="geometry" />
        </mxCell>
        <mxCell id="8Jns6F7Sz3eSBuDucrZk-16" value="Закрыть холодильник" style="rounded=0;whiteSpace=wrap;html=1;" vertex="1" parent="1">
          <mxGeometry x="210" y="900" width="120" height="30" as="geometry" />
        </mxCell>
        <mxCell id="8Jns6F7Sz3eSBuDucrZk-27" value="" style="edgeStyle=orthogonalEdgeStyle;rounded=0;orthogonalLoop=1;jettySize=auto;html=1;" edge="1" parent="1" source="8Jns6F7Sz3eSBuDucrZk-18" target="8Jns6F7Sz3eSBuDucrZk-25">
          <mxGeometry relative="1" as="geometry" />
        </mxCell>
        <mxCell id="8Jns6F7Sz3eSBuDucrZk-18" value="Убрать хлеб в хлебницу" style="rounded=0;whiteSpace=wrap;html=1;" vertex="1" parent="1">
          <mxGeometry x="510" y="900" width="120" height="30" as="geometry" />
        </mxCell>
        <mxCell id="8Jns6F7Sz3eSBuDucrZk-21" style="edgeStyle=orthogonalEdgeStyle;rounded=0;orthogonalLoop=1;jettySize=auto;html=1;exitX=0.5;exitY=1;exitDx=0;exitDy=0;entryX=0.587;entryY=-0.093;entryDx=0;entryDy=0;entryPerimeter=0;" edge="1" parent="1" source="wdBrdmCuDnFgoLkxRWWF-117" target="8Jns6F7Sz3eSBuDucrZk-11">
          <mxGeometry relative="1" as="geometry" />
        </mxCell>
        <mxCell id="8Jns6F7Sz3eSBuDucrZk-22" value="Да" style="edgeLabel;html=1;align=center;verticalAlign=middle;resizable=0;points=[];" vertex="1" connectable="0" parent="8Jns6F7Sz3eSBuDucrZk-21">
          <mxGeometry x="0.0726" y="1" relative="1" as="geometry">
            <mxPoint as="offset" />
          </mxGeometry>
        </mxCell>
        <mxCell id="8Jns6F7Sz3eSBuDucrZk-31" style="edgeStyle=orthogonalEdgeStyle;rounded=0;orthogonalLoop=1;jettySize=auto;html=1;exitX=0;exitY=0.25;exitDx=0;exitDy=0;" edge="1" parent="1" source="8Jns6F7Sz3eSBuDucrZk-25" target="8Jns6F7Sz3eSBuDucrZk-28">
          <mxGeometry relative="1" as="geometry">
            <Array as="points">
              <mxPoint x="510" y="955" />
            </Array>
          </mxGeometry>
        </mxCell>
        <mxCell id="8Jns6F7Sz3eSBuDucrZk-25" value="Закрыть хлебницу" style="rounded=0;whiteSpace=wrap;html=1;" vertex="1" parent="1">
          <mxGeometry x="510" y="940" width="120" height="30" as="geometry" />
        </mxCell>
        <mxCell id="8Jns6F7Sz3eSBuDucrZk-34" style="edgeStyle=orthogonalEdgeStyle;rounded=0;orthogonalLoop=1;jettySize=auto;html=1;exitX=0.5;exitY=0;exitDx=0;exitDy=0;" edge="1" parent="1" source="8Jns6F7Sz3eSBuDucrZk-28" target="8Jns6F7Sz3eSBuDucrZk-29">
          <mxGeometry relative="1" as="geometry" />
        </mxCell>
        <mxCell id="8Jns6F7Sz3eSBuDucrZk-28" value="Открыть холодильник" style="rounded=0;whiteSpace=wrap;html=1;" vertex="1" parent="1">
          <mxGeometry x="370" y="940" width="120" height="30" as="geometry" />
        </mxCell>
        <mxCell id="8Jns6F7Sz3eSBuDucrZk-36" value="" style="edgeStyle=orthogonalEdgeStyle;rounded=0;orthogonalLoop=1;jettySize=auto;html=1;" edge="1" parent="1" source="8Jns6F7Sz3eSBuDucrZk-29" target="8Jns6F7Sz3eSBuDucrZk-16">
          <mxGeometry relative="1" as="geometry" />
        </mxCell>
        <mxCell id="8Jns6F7Sz3eSBuDucrZk-29" value="Убрать сыр и масло в холодильник" style="rounded=0;whiteSpace=wrap;html=1;" vertex="1" parent="1">
          <mxGeometry x="370" y="899" width="120" height="30" as="geometry" />
        </mxCell>
        <mxCell id="8Jns6F7Sz3eSBuDucrZk-39" value="Бутерброд готов?" style="rhombus;whiteSpace=wrap;html=1;" vertex="1" parent="1">
          <mxGeometry x="250" y="985" width="120" height="80" as="geometry" />
        </mxCell>
        <mxCell id="8Jns6F7Sz3eSBuDucrZk-47" style="edgeStyle=orthogonalEdgeStyle;rounded=0;orthogonalLoop=1;jettySize=auto;html=1;exitX=0.5;exitY=0;exitDx=0;exitDy=0;entryX=0.558;entryY=0.933;entryDx=0;entryDy=0;entryPerimeter=0;" edge="1" parent="1" source="8Jns6F7Sz3eSBuDucrZk-39" target="8Jns6F7Sz3eSBuDucrZk-11">
          <mxGeometry relative="1" as="geometry">
            <Array as="points">
              <mxPoint x="310" y="980" />
              <mxPoint x="717" y="980" />
            </Array>
          </mxGeometry>
        </mxCell>
        <mxCell id="8Jns6F7Sz3eSBuDucrZk-48" value="Да" style="edgeLabel;html=1;align=center;verticalAlign=middle;resizable=0;points=[];" vertex="1" connectable="0" parent="8Jns6F7Sz3eSBuDucrZk-47">
          <mxGeometry x="-0.0454" y="1" relative="1" as="geometry">
            <mxPoint as="offset" />
          </mxGeometry>
        </mxCell>
      </root>
    </mxGraphModel>
  </diagram>
</mxfile>
